<svg width="306" height="306" viewBox="0 0 306 306" fill="none" xmlns="http://www.w3.org/2000/svg">
<path d="M277.312 172.125C266.794 172.125 258.188 163.519 258.188 153C258.188 142.481 266.794 133.875 277.312 133.875C287.831 133.875 296.438 142.481 296.438 153C296.438 163.519 287.831 172.125 277.312 172.125ZM229.5 38.25C229.5 27.7312 220.894 19.125 210.375 19.125C199.856 19.125 191.25 27.7312 191.25 38.25C191.25 48.7688 199.856 57.375 210.375 57.375C220.894 57.375 229.5 48.7688 229.5 38.25ZM229.5 267.75C229.5 257.231 220.894 248.625 210.375 248.625C199.856 248.625 191.25 257.231 191.25 267.75C191.25 278.269 199.856 286.875 210.375 286.875C220.894 286.875 229.5 278.269 229.5 267.75ZM239.062 143.438H199.761C206.15 137.222 211.228 129.788 214.694 121.576C218.159 113.363 219.942 104.539 219.938 95.625V76.5H200.812V95.625C200.812 122.017 179.392 143.438 153 143.438H86.0625V162.562H153C179.392 162.562 200.812 183.983 200.812 210.375V229.5H219.938V210.375C219.938 191.632 212.192 174.707 199.761 162.562H239.062V143.438ZM111.212 194.023L110.829 194.214L98.3025 201.577L86.0625 208.845L38.25 180.54V125.46L86.0625 97.155L98.3025 104.423L110.829 111.786L111.212 111.977L127.564 121.731L137.317 105.283L120.966 95.5294L120.583 95.3381L107.865 87.8794L90.9394 77.8388C89.4094 76.9781 87.7838 76.5 86.0625 76.5C84.3412 76.5 82.7156 76.9781 81.1856 77.8388L23.8106 111.786C20.9419 113.507 19.125 116.663 19.125 120.009V185.991C19.125 189.338 20.9419 192.493 23.8106 194.214L81.1856 228.161C82.7156 229.022 84.3412 229.5 86.0625 229.5C87.7838 229.5 89.4094 229.022 90.9394 228.161L107.865 218.121L120.583 210.662L120.966 210.471L137.317 200.717L127.564 184.269L111.212 194.023Z" fill="white"/>
</svg>
