<svg width="903" height="306" viewBox="0 0 903 306" fill="none" xmlns="http://www.w3.org/2000/svg">
<path d="M360.664 48.456V37.96H422.488V48.456H397.144V125H386.008V48.456H360.664ZM465.853 70.216C463.464 70.216 460.648 70.8133 457.405 72.008C454.248 73.2027 450.408 75.6347 445.885 79.304V125H435.389V30.28H445.885V70.088C450.322 66.3333 454.333 63.7733 457.917 62.408C461.501 61.0427 465 60.36 468.413 60.36C474.301 60.36 478.781 62.2373 481.853 65.992C485.01 69.6613 486.589 74.9093 486.589 81.736V125H476.093V83.272C476.093 74.568 472.68 70.216 465.853 70.216ZM554.466 121.288C550.626 123.165 546.786 124.445 542.946 125.128C539.106 125.896 535.565 126.28 532.322 126.28C523.191 126.28 516.365 123.677 511.842 118.472C507.405 113.267 505.186 106.141 505.186 97.096V89.416C505.186 80.6267 507.405 73.5867 511.842 68.296C516.365 63.0053 522.722 60.36 530.914 60.36C535.266 60.36 539.234 61.256 542.818 63.048C546.487 64.7547 549.389 67.4 551.522 70.984C553.741 74.4827 554.85 79.0053 554.85 84.552C554.85 88.136 554.338 92.232 553.314 96.84H515.554V97.096C515.554 103.581 516.877 108.488 519.522 111.816C522.253 115.144 526.605 116.808 532.578 116.808C535.309 116.808 538.295 116.467 541.538 115.784C544.866 115.101 548.109 114.035 551.266 112.584L554.466 121.288ZM530.914 69.576C525.965 69.576 522.21 71.1973 519.65 74.44C517.175 77.5973 515.81 82.0773 515.554 87.88H544.226C544.482 86.344 544.61 84.8933 544.61 83.528C544.61 78.7493 543.245 75.2507 540.514 73.032C537.869 70.728 534.669 69.576 530.914 69.576ZM651.833 114.632V125H603.193V37.96H650.553V48.456H614.329V75.72H646.713V86.216H614.329V114.632H651.833ZM669.401 37.96H680.921V93.768C680.921 100.765 682.372 106.227 685.273 110.152C688.26 114.077 692.868 116.04 699.097 116.04C705.412 116.04 710.02 114.077 712.921 110.152C715.822 106.227 717.273 100.765 717.273 93.768V37.96H728.793V93.768C728.793 103.923 726.318 111.901 721.369 117.704C716.42 123.421 708.996 126.28 699.097 126.28C689.113 126.28 681.646 123.421 676.697 117.704C671.833 111.901 669.401 103.923 669.401 93.768V37.96ZM761.745 91.08C761.745 99.1013 763.324 105.288 766.481 109.64C769.724 113.907 774.673 116.04 781.329 116.04C784.23 116.04 787.089 115.699 789.905 115.016C792.721 114.333 796.092 113.139 800.017 111.432L803.729 120.904C799.548 122.781 795.58 124.147 791.825 125C788.07 125.853 784.444 126.28 780.945 126.28C770.876 126.28 763.238 123.123 758.033 116.808C752.828 110.493 750.225 101.917 750.225 91.08V71.88C750.225 61.0427 752.828 52.4667 758.033 46.152C763.238 39.8373 770.876 36.68 780.945 36.68C784.444 36.68 788.07 37.1067 791.825 37.96C795.665 38.8133 799.548 40.1787 803.473 42.056L799.889 51.656C792.977 48.584 786.79 47.048 781.329 47.048C774.673 47.048 769.724 49.1813 766.481 53.448C763.324 57.7147 761.745 63.8587 761.745 71.88V91.08ZM417.368 278L411.992 260.976H382.168L376.792 278H361.56L390.616 190.96H404.184L433.368 278H417.368ZM390.488 234.352L386.52 246.896H407.512L403.544 234.352L397.144 212.336L390.488 234.352ZM481.345 226.544C477.334 226.544 473.494 227.184 469.825 228.464C466.241 229.659 462.785 231.621 459.457 234.352V278H444.737V213.104H458.689V223.088C463.041 218.992 466.924 216.091 470.337 214.384C473.75 212.677 477.42 211.824 481.345 211.824V226.544ZM505.501 241.776V249.328C505.501 254.789 506.482 258.885 508.445 261.616C510.408 264.347 513.565 265.712 517.917 265.712C520.05 265.712 522.44 265.456 525.085 264.944C527.816 264.347 530.76 263.451 533.917 262.256L538.141 274.672C534.301 276.208 530.674 277.36 527.261 278.128C523.848 278.896 520.477 279.28 517.149 279.28C508.616 279.28 502.088 276.549 497.565 271.088C493.042 265.627 490.781 258.373 490.781 249.328V241.776C490.781 232.645 493.042 225.392 497.565 220.016C502.088 214.555 508.616 211.824 517.149 211.824C520.392 211.824 523.677 212.208 527.005 212.976C530.333 213.744 533.832 214.853 537.501 216.304L533.277 228.976C527.133 226.587 522.013 225.392 517.917 225.392C513.565 225.392 510.408 226.757 508.445 229.488C506.482 232.133 505.501 236.229 505.501 241.776ZM583.356 225.52C581.223 225.52 578.791 226.032 576.06 227.056C573.329 228.08 570.087 230.085 566.332 233.072V278H551.612V183.28H566.332V221.168C570.257 217.84 573.927 215.451 577.34 214C580.753 212.549 584.252 211.824 587.836 211.824C594.065 211.824 598.801 213.829 602.044 217.84C605.287 221.765 606.908 227.312 606.908 234.48V278H592.188V236.272C592.188 229.104 589.244 225.52 583.356 225.52ZM641.466 200.816H625.978V185.584H641.466V200.816ZM641.082 278H626.362V213.104H641.082V278ZM700.402 275.824C698.183 276.848 695.623 277.659 692.722 278.256C689.821 278.939 686.877 279.28 683.89 279.28C678.941 279.28 674.973 278.256 671.986 276.208C668.999 274.16 666.823 271.301 665.458 267.632C664.178 263.963 663.538 259.781 663.538 255.088V225.904H653.042V213.104H663.538V196.208H678.258V213.104H698.482V225.904H678.258V255.088C678.258 259.013 678.983 261.744 680.434 263.28C681.97 264.731 684.146 265.456 686.962 265.456C688.327 265.456 689.778 265.328 691.314 265.072C692.935 264.731 694.727 264.176 696.69 263.408L700.402 275.824ZM761.517 274.288C757.08 276.08 752.898 277.36 748.973 278.128C745.048 278.896 741.336 279.28 737.837 279.28C728.194 279.28 720.898 276.549 715.949 271.088C711 265.627 708.525 258.373 708.525 249.328V241.648C708.525 235.589 709.634 230.341 711.853 225.904C714.072 221.467 717.229 218.011 721.325 215.536C725.421 213.061 730.242 211.824 735.789 211.824C740.312 211.824 744.536 212.763 748.461 214.64C752.472 216.432 755.714 219.291 758.189 223.216C760.749 227.056 762.029 232.005 762.029 238.064C762.029 239.856 761.901 241.776 761.645 243.824C761.389 245.787 760.962 247.877 760.365 250.096H722.733C722.904 255.387 724.226 259.355 726.701 262C729.176 264.645 733.144 265.968 738.605 265.968C741.506 265.968 744.493 265.627 747.565 264.944C750.722 264.261 753.965 263.237 757.293 261.872L761.517 274.288ZM735.789 224.24C731.864 224.24 728.792 225.52 726.573 228.08C724.44 230.555 723.202 234.139 722.861 238.832H747.437C747.522 238.405 747.565 238.021 747.565 237.68C747.565 237.253 747.565 236.869 747.565 236.528C747.565 232.432 746.413 229.36 744.109 227.312C741.805 225.264 739.032 224.24 735.789 224.24ZM790.251 241.776V249.328C790.251 254.789 791.232 258.885 793.195 261.616C795.158 264.347 798.315 265.712 802.667 265.712C804.8 265.712 807.19 265.456 809.835 264.944C812.566 264.347 815.51 263.451 818.667 262.256L822.891 274.672C819.051 276.208 815.424 277.36 812.011 278.128C808.598 278.896 805.227 279.28 801.899 279.28C793.366 279.28 786.838 276.549 782.315 271.088C777.792 265.627 775.531 258.373 775.531 249.328V241.776C775.531 232.645 777.792 225.392 782.315 220.016C786.838 214.555 793.366 211.824 801.899 211.824C805.142 211.824 808.427 212.208 811.755 212.976C815.083 213.744 818.582 214.853 822.251 216.304L818.027 228.976C811.883 226.587 806.763 225.392 802.667 225.392C798.315 225.392 795.158 226.757 793.195 229.488C791.232 232.133 790.251 236.229 790.251 241.776ZM875.402 275.824C873.183 276.848 870.623 277.659 867.722 278.256C864.821 278.939 861.877 279.28 858.89 279.28C853.941 279.28 849.973 278.256 846.986 276.208C843.999 274.16 841.823 271.301 840.458 267.632C839.178 263.963 838.538 259.781 838.538 255.088V225.904H828.042V213.104H838.538V196.208H853.258V213.104H873.482V225.904H853.258V255.088C853.258 259.013 853.983 261.744 855.434 263.28C856.97 264.731 859.146 265.456 861.962 265.456C863.327 265.456 864.778 265.328 866.314 265.072C867.935 264.731 869.727 264.176 871.69 263.408L875.402 275.824Z" fill="black"/>
<path d="M277.312 172.125C266.794 172.125 258.188 163.519 258.188 153C258.188 142.481 266.794 133.875 277.312 133.875C287.831 133.875 296.438 142.481 296.438 153C296.438 163.519 287.831 172.125 277.312 172.125ZM229.5 38.25C229.5 27.7312 220.894 19.125 210.375 19.125C199.856 19.125 191.25 27.7312 191.25 38.25C191.25 48.7688 199.856 57.375 210.375 57.375C220.894 57.375 229.5 48.7688 229.5 38.25ZM229.5 267.75C229.5 257.231 220.894 248.625 210.375 248.625C199.856 248.625 191.25 257.231 191.25 267.75C191.25 278.269 199.856 286.875 210.375 286.875C220.894 286.875 229.5 278.269 229.5 267.75ZM239.062 143.438H199.761C206.15 137.222 211.228 129.788 214.694 121.576C218.159 113.363 219.942 104.539 219.938 95.625V76.5H200.812V95.625C200.812 122.017 179.392 143.438 153 143.438H86.0625V162.562H153C179.392 162.562 200.812 183.983 200.812 210.375V229.5H219.938V210.375C219.938 191.632 212.192 174.707 199.761 162.562H239.062V143.438ZM111.212 194.023L110.829 194.214L98.3025 201.577L86.0625 208.845L38.25 180.54V125.46L86.0625 97.155L98.3025 104.423L110.829 111.786L111.212 111.977L127.564 121.731L137.317 105.283L120.966 95.5294L120.583 95.3381L107.865 87.8794L90.9394 77.8388C89.4094 76.9781 87.7838 76.5 86.0625 76.5C84.3412 76.5 82.7156 76.9781 81.1856 77.8388L23.8106 111.786C20.9419 113.507 19.125 116.663 19.125 120.009V185.991C19.125 189.338 20.9419 192.493 23.8106 194.214L81.1856 228.161C82.7156 229.022 84.3412 229.5 86.0625 229.5C87.7838 229.5 89.4094 229.022 90.9394 228.161L107.865 218.121L120.583 210.662L120.966 210.471L137.317 200.717L127.564 184.269L111.212 194.023Z" fill="black"/>
</svg>
