<svg width="192" height="192" viewBox="0 0 192 192" fill="none" xmlns="http://www.w3.org/2000/svg">
<path fill-rule="evenodd" clip-rule="evenodd" d="M184.442 164.159L136.442 20.1587C135.607 17.6749 133.982 15.5326 131.815 14.0591C129.648 12.5856 127.058 11.8622 124.442 11.9987H67.5618C65.046 11.9922 62.5915 12.7764 60.5459 14.2406C58.5002 15.705 56.9666 17.7752 56.1616 20.1587L7.56174 164.159C6.93151 166.015 6.7656 167.998 7.07907 169.933C7.39255 171.87 8.17578 173.699 9.35984 175.262C10.5439 176.825 12.0931 178.074 13.8715 178.9C15.65 179.725 17.6036 180.103 19.5618 179.999H54.7217C57.2168 179.981 59.644 179.184 61.6657 177.721C63.6875 176.26 65.2033 174.203 66.0017 171.839L73.3216 150.479L109.322 177.719C111.414 179.234 113.939 180.034 116.522 179.999H172.682C174.62 180.062 176.545 179.654 178.291 178.812C180.038 177.968 181.554 176.716 182.711 175.158C183.866 173.602 184.627 171.787 184.928 169.872C185.231 167.956 185.064 165.996 184.442 164.159ZM117.002 172.079C116.13 172.079 115.283 171.784 114.602 171.239L46.8019 120.959L45.7217 120.119H81.7217L82.6818 117.599L94.6818 87.2386L121.562 166.799C121.778 167.466 121.818 168.178 121.679 168.864C121.539 169.552 121.226 170.191 120.768 170.723C120.309 171.253 119.722 171.656 119.063 171.894C118.403 172.132 117.693 172.195 117.002 172.079ZM173.041 172.079H128.402C129.299 169.514 129.299 166.722 128.402 164.159L79.8019 20.1587H124.442C125.289 20.1629 126.114 20.431 126.803 20.9255C127.49 21.4201 128.007 22.117 128.282 22.9188L176.882 166.919C177.045 167.516 177.072 168.144 176.957 168.754C176.843 169.363 176.591 169.938 176.221 170.436C175.85 170.933 175.373 171.34 174.822 171.624C174.271 171.908 173.661 172.064 173.041 172.079Z" fill="white"/>
</svg>
