<svg width="618" height="192" viewBox="0 0 618 192" fill="none" xmlns="http://www.w3.org/2000/svg">
<g clip-path="url(#clip0_400_38)">
<path d="M0 118.61C0 75.2812 28.9772 44.9512 70.4119 44.9512C98.3059 44.9512 121.054 59.033 130.262 80.6973C131.345 82.5929 131.616 84.7593 131.616 86.9258C131.616 91.5294 127.825 95.0499 123.492 95.0499C123.221 95.0499 123.221 95.0499 122.95 95.0499C118.888 95.0499 115.367 92.3419 114.284 88.5506C107.243 70.9484 90.9939 60.9286 70.6827 60.9286C39.8098 60.9286 17.8738 84.4885 17.8738 118.61C17.8738 152.46 39.2682 176.02 70.4119 176.02C90.723 176.02 106.16 166.271 114.284 145.69C115.367 141.899 118.888 139.191 122.679 139.191C127.554 139.191 131.345 142.982 131.345 147.857V148.127C131.345 150.023 131.074 151.919 130.262 153.814C121.867 177.104 99.3891 191.998 70.4119 191.998C28.7064 191.998 0 161.938 0 118.61Z" fill="white"/>
<path d="M235.338 180.083C235.338 186.04 232.089 189.832 226.401 189.832C220.714 189.832 217.735 186.04 217.735 180.083V10.0178C217.735 3.7893 220.985 -0.00195312 226.672 -0.00195312C232.359 -0.00195312 235.338 3.5185 235.338 10.0178V48.7428H265.94C271.357 48.7428 274.607 51.7216 274.607 56.5961C274.607 61.4705 271.357 64.4494 265.94 64.4494H235.338V180.083Z" fill="white"/>
<path d="M372.642 58.2206C372.642 62.8243 369.121 66.6156 364.517 66.6156C364.247 66.6156 363.976 66.6156 363.705 66.6156C361.268 66.6156 359.101 65.8031 357.205 64.7199C352.872 62.5535 347.998 61.4703 342.852 61.7411C323.895 61.7411 311.708 78.2601 311.708 99.112V180.082C311.708 186.311 308.729 189.831 303.042 189.831C297.355 189.831 294.105 186.311 294.105 180.082V57.1374C294.105 50.9089 297.355 47.1177 303.042 47.1177C308.729 47.1177 311.708 50.6381 311.708 57.1374V60.6579C319.562 50.3673 332.02 44.6804 345.019 44.9512C353.143 44.6804 360.997 46.5761 368.038 50.3673C371.017 51.9921 372.642 54.971 372.642 58.2206Z" fill="white"/>
<path d="M390.786 57.1379C390.786 50.9094 394.036 47.1182 399.723 47.1182C405.41 47.1182 408.389 50.6386 408.389 57.1379V180.083C408.389 186.041 405.139 189.832 399.452 189.832C393.765 189.832 390.786 186.041 390.786 180.083V57.1379Z" fill="white"/>
<path d="M163.03 57.1379C163.03 50.9094 166.28 47.1182 171.967 47.1182C177.654 47.1182 180.633 50.6386 180.633 57.1379V180.083C180.633 186.041 177.383 189.832 171.696 189.832C166.009 189.832 163.03 186.041 163.03 180.083V57.1379Z" fill="white"/>
<path d="M171.967 28.1617C179.745 28.1617 186.05 21.857 186.05 14.0799C186.05 6.30268 179.745 -0.00195312 171.967 -0.00195312C164.19 -0.00195312 157.885 6.30268 157.885 14.0799C157.885 21.857 164.19 28.1617 171.967 28.1617Z" fill="white"/>
<path d="M501.279 129.442L452.803 186.311C451.178 188.478 448.47 189.832 445.761 189.832C441.158 189.832 437.366 186.311 437.366 181.707C437.366 179.27 438.179 177.104 439.804 175.479L490.446 118.068L441.699 62.0121C439.804 60.3872 438.72 57.95 438.72 55.5128C438.72 50.9091 442.512 47.1179 447.386 47.3887H447.657C450.365 47.3887 452.803 48.7427 454.428 50.9091L501.549 106.424L548.671 50.9091C550.296 48.7427 552.733 47.3887 555.442 47.3887C560.045 47.1179 564.108 50.6383 564.108 55.242V55.5128C564.108 57.95 563.024 60.3872 561.129 62.0121L512.382 118.068L563.024 175.479C564.649 177.104 565.462 179.541 565.462 181.707C565.462 186.311 561.67 190.102 557.066 189.832C554.358 189.832 551.65 188.478 550.025 186.311L501.279 129.442Z" fill="white"/>
<path d="M599.584 174.937H594.439V188.478H592.272V174.937H587.127V173.312H599.584V174.937ZM618 173.312V188.478H616.104V178.729L616.375 175.75L616.104 176.833L611.229 188.207H609.605L604.73 176.833L604.188 175.75L604.459 178.729V188.478H602.563V173.312H605.001L609.605 184.145L610.417 186.04L610.959 184.145L615.563 173.312H618Z" fill="white"/>
<path d="M501.279 28.1617C509.056 28.1617 515.361 21.857 515.361 14.0799C515.361 6.30268 509.056 -0.00195312 501.279 -0.00195312C493.501 -0.00195312 487.196 6.30268 487.196 14.0799C487.196 21.857 493.501 28.1617 501.279 28.1617Z" fill="white"/>
</g>
<defs>
<clipPath id="clip0_400_38">
<rect width="618" height="192" fill="white" transform="translate(0 -0.00195312)"/>
</clipPath>
</defs>
</svg>
