<svg width="192" height="192" viewBox="0 0 192 192" fill="none" xmlns="http://www.w3.org/2000/svg">
<path d="M90.6815 99.3741H69.6389C67.7013 99.3741 66.1318 97.8046 66.1318 95.8668C66.1318 93.9289 67.7013 92.3594 69.6389 92.3594H90.6815C92.6192 92.3594 94.1886 93.9289 94.1886 95.8668C94.1886 97.8046 92.6192 99.3741 90.6815 99.3741Z" fill="white"/>
<path d="M55.6106 99.3741C57.5475 99.3741 59.1177 97.8038 59.1177 95.8668C59.1177 93.9297 57.5475 92.3594 55.6106 92.3594C53.6737 92.3594 52.1035 93.9297 52.1035 95.8668C52.1035 97.8038 53.6737 99.3741 55.6106 99.3741Z" fill="white"/>
<path d="M90.6821 113.403H48.5969C46.6593 113.403 45.0898 111.833 45.0898 109.896C45.0898 107.958 46.6593 106.388 48.5969 106.388H90.6821C96.4921 106.388 101.203 101.677 101.203 95.866C101.203 90.0554 96.4921 85.3439 90.6821 85.3439H48.5969C46.6593 85.3439 45.0898 83.7743 45.0898 81.8365C45.0898 79.8987 46.6593 78.3291 48.5969 78.3291H90.6821C100.367 78.3291 108.218 86.1798 108.218 95.866C108.218 105.552 100.367 113.403 90.6821 113.403Z" fill="white"/>
<path d="M70.8253 127.433H45.0891C43.1515 127.433 41.582 125.863 41.582 123.925C41.582 121.988 43.1515 120.418 45.0891 120.418H70.8253C72.763 120.418 74.3324 121.988 74.3324 123.925C74.3324 125.863 72.763 127.433 70.8253 127.433Z" fill="white"/>
<path d="M98.5725 126.308C96.6348 126.308 95.0654 124.741 95.0625 122.803C95.0625 121.242 96.0912 119.869 97.5876 119.433C110.599 115.622 118.057 101.984 114.246 88.9715C113.311 85.7769 111.736 82.8073 109.617 80.2382C108.384 78.7446 108.594 76.535 110.087 75.3015C111.581 74.0681 113.79 74.2785 115.024 75.7692C119.688 81.4278 122.242 88.5331 122.245 95.8665C122.266 102.767 120.007 109.481 115.816 114.961C111.721 120.328 106.028 124.253 99.5545 126.167C99.2359 126.261 98.9057 126.308 98.5725 126.308Z" fill="white"/>
<path d="M87.2443 71.3146H59.1174C57.1798 71.3146 55.6104 69.745 55.6104 67.8072C55.6104 65.8694 57.1798 64.2998 59.1174 64.2998H87.2443C89.182 64.2998 90.7514 65.8694 90.7514 67.8072C90.7514 69.745 89.182 71.3146 87.2443 71.3146Z" fill="white"/>
<path d="M90.6813 141.462H45.0891C43.1515 141.462 41.582 139.893 41.582 137.955C41.582 136.017 43.1515 134.448 45.0891 134.448H90.6813C111.978 134.424 129.236 117.165 129.259 95.8665C129.259 74.5942 111.955 57.2853 90.6813 57.2853H45.0891C43.1515 57.2853 41.582 55.7157 41.582 53.7779C41.582 51.8401 43.1515 50.2705 45.0891 50.2705H90.6813C115.816 50.2705 136.274 70.7302 136.274 95.8665C136.274 121.003 115.821 141.462 90.6813 141.462Z" fill="white"/>
<path d="M77.4479 155.492H45.0891C43.1515 155.492 41.582 153.923 41.582 151.985C41.582 150.047 43.1515 148.478 45.0891 148.478H77.4479C79.3856 148.478 80.955 150.047 80.955 151.985C80.955 153.923 79.3856 155.492 77.4479 155.492Z" fill="white"/>
<path d="M105.587 153.492C103.649 153.498 102.077 151.931 102.071 149.994C102.068 148.407 103.129 147.015 104.658 146.6C117.131 143.166 127.901 135.251 134.906 124.372C135.888 122.703 138.039 122.145 139.708 123.127C141.377 124.109 141.935 126.26 140.953 127.929C140.904 128.011 140.851 128.093 140.795 128.172C132.855 140.497 120.653 149.465 106.517 153.355C106.216 153.443 105.903 153.489 105.587 153.492Z" fill="white"/>
<path d="M146.637 103.676H146.368C144.437 103.53 142.99 101.847 143.136 99.9148C143.238 98.582 143.288 97.2229 143.288 95.8784C143.294 75.7694 131.837 57.417 113.77 48.5901C112.031 47.7396 111.309 45.6381 112.16 43.899C113.01 42.1599 115.111 41.438 116.85 42.2885C137.32 52.2904 150.302 73.0833 150.299 95.8667C150.299 97.3866 150.241 98.924 150.127 100.432C149.989 102.259 148.467 103.674 146.634 103.676H146.637Z" fill="white"/>
<path d="M48.5969 43.256C46.6651 43.256 45.0898 41.6864 45.0898 39.7486C45.0898 37.8108 46.668 36.2412 48.5969 36.2412H88.344C90.2817 36.2412 91.8511 37.8108 91.8511 39.7486C91.8511 41.6864 90.2817 43.256 88.344 43.256H48.5969Z" fill="white"/>
<path d="M45.0891 71.3146C47.026 71.3146 48.5962 69.7443 48.5962 67.8072C48.5962 65.8701 47.026 64.2998 45.0891 64.2998C43.1522 64.2998 41.582 65.8701 41.582 67.8072C41.582 69.7443 43.1522 71.3146 45.0891 71.3146Z" fill="white"/>
<path d="M101.203 73.3605C103.14 73.3605 104.71 71.7902 104.71 69.8531C104.71 67.916 103.14 66.3457 101.203 66.3457C99.2665 66.3457 97.6963 67.916 97.6963 69.8531C97.6963 71.7902 99.2665 73.3605 101.203 73.3605Z" fill="white"/>
<path d="M84.8362 127.433C86.7731 127.433 88.3433 125.862 88.3433 123.925C88.3433 121.988 86.7731 120.418 84.8362 120.418C82.8993 120.418 81.3291 121.988 81.3291 123.925C81.3291 125.862 82.8993 127.433 84.8362 127.433Z" fill="white"/>
<path d="M91.5589 155.492C93.4958 155.492 95.0659 153.922 95.0659 151.985C95.0659 150.048 93.4958 148.478 91.5589 148.478C89.6219 148.478 88.0518 150.048 88.0518 151.985C88.0518 153.922 89.6219 155.492 91.5589 155.492Z" fill="white"/>
<path d="M143.872 117.203C145.809 117.203 147.379 115.633 147.379 113.696C147.379 111.759 145.809 110.188 143.872 110.188C141.935 110.188 140.365 111.759 140.365 113.696C140.365 115.633 141.935 117.203 143.872 117.203Z" fill="white"/>
<path d="M102.079 44.4249C104.016 44.4249 105.586 42.8546 105.586 40.9175C105.586 38.9805 104.016 37.4102 102.079 37.4102C100.142 37.4102 98.5723 38.9805 98.5723 40.9175C98.5723 42.8546 100.142 44.4249 102.079 44.4249Z" fill="white"/>
<path d="M4.67613 51.4396C2.09257 51.4396 0 49.3469 0 46.7631V4.67456C0 2.09078 2.09257 -0.00195312 4.67613 -0.00195312H46.7613C49.3448 -0.00195312 51.4374 2.09078 51.4374 4.67456C51.4374 7.25833 49.3448 9.35106 46.7613 9.35106H9.35225V46.7631C9.35225 49.3469 7.25968 51.4396 4.67613 51.4396Z" fill="white"/>
<path d="M187.045 51.4396C184.462 51.4396 182.369 49.3469 182.369 46.7631V9.35106H144.96C142.377 9.35106 140.284 7.25833 140.284 4.67456C140.284 2.09078 142.377 -0.00195312 144.96 -0.00195312H187.045C189.629 -0.00195312 191.722 2.09078 191.722 4.67456V46.7631C191.722 49.3469 189.629 51.4396 187.045 51.4396Z" fill="white"/>
<path d="M187.209 191.998H145.123C142.54 191.998 140.447 189.905 140.447 187.322C140.447 184.738 142.54 182.645 145.123 182.645H182.532V145.233C182.532 142.649 184.625 140.557 187.209 140.557C189.792 140.557 191.885 142.649 191.885 145.233V187.322C191.885 189.905 189.792 191.998 187.209 191.998Z" fill="white"/>
<path d="M46.9253 191.998H4.84019C2.25663 191.998 0.164062 189.905 0.164062 187.322V145.233C0.164062 142.649 2.25663 140.557 4.84019 140.557C7.42375 140.557 9.51631 142.649 9.51631 145.233V182.645H46.9253C49.5089 182.645 51.6014 184.738 51.6014 187.322C51.6014 189.905 49.5089 191.998 46.9253 191.998Z" fill="white"/>
</svg>
