<svg width="500" height="62" viewBox="0 0 500 62" fill="none" xmlns="http://www.w3.org/2000/svg">
<g clip-path="url(#clip0_454_656)">
<path d="M479.608 38.9088C484.158 38.1234 488.445 36.2304 492.091 33.3976C495.453 29.8788 497.142 25.0758 496.72 20.226C496.734 16.2772 495.646 12.4029 493.579 9.0383C490.531 3.84128 485.048 0.529071 479.03 0.248002H476.026L468.999 0H437.2C435.271 0 434.444 0.799118 434.444 2.75558V58.4734C434.444 60.4023 435.243 61.229 437.2 61.229H445.467C447.396 61.229 448.222 60.4299 448.222 58.4734V40.011H458.335C460.559 40.1268 462.672 41.0141 464.315 42.5186L480.352 58.6387C481.813 60.1323 483.777 61.0361 485.863 61.1739H498.181C500.11 61.1739 500.578 60.0441 499.228 58.6663L479.608 38.9088ZM477.514 27.0598H448.167V13.0063H477.514C480.479 13.3701 482.717 15.9438 482.667 18.9308V21.1077C482.719 24.1003 480.485 26.6823 477.514 27.0598Z" fill="white"/>
<path d="M421.604 48.2778H376.054V36.787H412.4C414.329 36.787 415.156 35.9879 415.156 34.0314V27.3354C415.156 25.4064 414.357 24.5798 412.4 24.5798H376.027V13.1166H421.604C423.533 13.1166 424.36 12.3174 424.36 10.361V2.75558C424.36 0.826674 423.56 0 421.604 0H364.784C362.855 0 362.028 0.799118 362.028 2.75558V58.5285C362.028 60.4574 362.827 61.2841 364.784 61.2841H421.604C423.533 61.2841 424.36 60.485 424.36 58.5285V51.0058C424.36 49.0769 423.45 48.2778 421.604 48.2778Z" fill="white"/>
<path d="M351.971 20.1157C352.031 16.2166 350.948 12.3836 348.857 9.09341C345.787 3.76688 340.223 0.341692 334.087 0H292.312C290.356 0 289.557 0.799118 289.557 2.75558V58.4734C289.557 60.4023 290.356 61.229 292.312 61.229H301.295C303.224 61.229 304.051 60.4574 304.051 58.4734V13.0339H328.245C333.398 13.0339 338.413 16.4508 338.413 21.6037V58.5285C338.413 60.4574 339.212 61.2841 341.169 61.2841H349.298C351.254 61.2841 352.053 60.485 352.053 58.5285L351.971 20.1157Z" fill="white"/>
<path d="M276.853 47.9195H237.586L276.936 13.337C278.531 12.1163 279.534 10.27 279.692 8.26674V2.75558C279.692 0.826674 278.865 0 276.936 0H219.978C218.049 0 217.223 0.799118 217.223 2.75558V10.3885C217.223 12.3174 218.022 13.1441 219.978 13.1441H256.49L219.868 47.5062C218.286 48.7379 217.286 50.5787 217.112 52.5765V58.5561C217.112 60.485 217.911 61.3117 219.868 61.3117H276.771C278.7 61.3117 279.526 60.5125 279.526 58.5561V50.6476C279.581 48.7187 278.782 47.9195 276.853 47.9195Z" fill="white"/>
<path d="M204.436 0H147.561C145.605 0 144.806 0.771562 144.806 2.75558V10.361C144.806 12.2899 145.577 13.1166 147.561 13.1166H169V58.5285C169 60.4574 169.799 61.2841 171.755 61.2841H180.849C182.778 61.2841 183.604 60.485 183.604 58.5285V13.089H204.464C206.393 13.089 207.22 12.2899 207.22 10.3334V2.75558C207.164 0.881786 206.365 0 204.436 0Z" fill="white"/>
<path d="M132.02 48.2778H86.553V36.787H122.899C124.828 36.787 125.655 35.9879 125.655 34.0314V27.3354C125.655 25.4064 124.883 24.5798 122.899 24.5798H86.553V13.1166H132.02C133.949 13.1166 134.776 12.3174 134.776 10.361V2.75558C134.776 0.826674 133.977 0 132.02 0H75.3103C73.3814 0 72.5547 0.799118 72.5547 2.75558V58.5285C72.5547 60.4574 73.3538 61.2841 75.3103 61.2841H132.02C133.949 61.2841 134.776 60.485 134.776 58.5285V51.0058C134.748 49.0769 133.949 48.2778 132.02 48.2778Z" fill="white"/>
<path d="M59.6032 0H51.0333C49.1044 0 48.2778 0.799118 48.2778 2.75558V24.442H14.1361V2.75558C14.1361 0.826674 13.337 0 11.3805 0H2.75558C0.799118 0 0 0.799118 0 2.75558V58.5561C0 60.5125 0.799118 61.3117 2.75558 61.3117H11.3805C13.3095 61.3117 14.1361 60.5401 14.1361 58.5561V36.5114H48.3053V58.5561C48.3053 60.485 49.1044 61.3117 51.0609 61.3117H59.6307C61.5597 61.3117 62.3863 60.5125 62.3863 58.5561V2.75558C62.3312 0.881786 61.5321 0 59.6032 0Z" fill="white"/>
</g>
<defs>
<clipPath id="clip0_454_656">
<rect width="500" height="61.312" fill="white"/>
</clipPath>
</defs>
</svg>
