<svg width="187" height="189" viewBox="0 0 187 189" fill="none" xmlns="http://www.w3.org/2000/svg">
<path d="M135.08 104.24L177.897 188.426H161.6L159.712 184.69L118.781 104.199L170.386 0.0136719H186.6L135.08 104.24Z" fill="white"/>
<path d="M109.609 104.267L152.386 188.413H111.497L77.0558 115.89L77.0137 115.766H75.1254L75.0833 115.89L40.6417 188.413H0L42.8166 104.267L42.7765 104.226L3.36559 24.3522H43.7206L74.8789 91.8652H77.2602H77.3003L119.955 0H161.214L109.569 104.226L109.609 104.267Z" fill="white"/>
<path d="M76.0868 132.89L84.2973 150.178L66.1524 188.412H49.7715L76.0868 132.89Z" fill="white"/>
<path d="M69.2316 24.3506L84.3798 57.1617L76.1291 74.9438L52.8105 24.3506H69.2316Z" fill="white"/>
</svg>
